#tb 0: 1/9
0,          0,          0,        1,   115200, 0x2c810465
0,          1,          1,        1,   115200, 0x957c0563
0,          2,          2,        1,   115200, 0x786c6d5b
0,          3,          3,        1,   115200, 0xd5ef87d3
0,          4,          4,        1,   115200, 0x3a2158e2
0,          5,          5,        1,   115200, 0x19d7d048
0,          6,          6,        1,   115200, 0x16d5e09a
0,          7,          7,        1,   115200, 0x73cca454
0,          8,          8,        1,   115200, 0x4d6be3bc
0,          9,          9,        1,   115200, 0x672aad0f
0,         10,         10,        1,   115200, 0x1bd103b7
0,         11,         11,        1,   115200, 0xbc3a9c02
0,         12,         12,        1,   115200, 0xa19cb68c
0,         13,         13,        1,   115200, 0x83477b6c
0,         14,         14,        1,   115200, 0x68b6898e
0,         15,         15,        1,   115200, 0xebbc5701
0,         16,         16,        1,   115200, 0x37e873db
0,         17,         17,        1,   115200, 0xcf9e7ad1
0,         18,         18,        1,   115200, 0x3fdffd3a
0,         19,         19,        1,   115200, 0x413da058
0,         20,         20,        1,   115200, 0xa432b2f6
0,         21,         21,        1,   115200, 0x9c532b61
0,         22,         22,        1,   115200, 0x40c03856
0,         23,         23,        1,   115200, 0xf8310ec7
0,         24,         24,        1,   115200, 0x89246da7
0,         25,         25,        1,   115200, 0x501d4dd0
0,         26,         26,        1,   115200, 0xe5151ebf
0,         27,         27,        1,   115200, 0xc166e201
0,         28,         28,        1,   115200, 0xded25b69
0,         29,         29,        1,   115200, 0xb51ec43f
0,         30,         30,        1,   115200, 0x9bba20eb
0,         31,         31,        1,   115200, 0x7a7b9278
0,         32,         32,        1,   115200, 0xe98475d0
0,         33,         33,        1,   115200, 0x960dc933
0,         34,         34,        1,   115200, 0xe93f558b
0,         35,         35,        1,   115200, 0x37ae3e42
0,         36,         36,        1,   115200, 0x0ecaf64a
0,         37,         37,        1,   115200, 0xd5938191
0,         38,         38,        1,   115200, 0xeb04510a
0,         39,         39,        1,   115200, 0xf5729201
0,         40,         40,        1,   115200, 0xb2c04015
0,         41,         41,        1,   115200, 0xd883143e
0,         42,         42,        1,   115200, 0x5e04197b
0,         43,         43,        1,   115200, 0x6b846e24
0,         44,         44,        1,   115200, 0x026e7a0b
0,         45,         45,        1,   115200, 0xf8c6708b
0,         46,         46,        1,   115200, 0x3fe75c63
0,         47,         47,        1,   115200, 0xf56467b1
0,         48,         48,        1,   115200, 0xf1230483
0,         49,         49,        1,   115200, 0x35a615ce
0,         50,         50,        1,   115200, 0x30b42d7b
0,         51,         51,        1,   115200, 0x8b7f22a1
0,         52,         52,        1,   115200, 0x03a2e789
0,         53,         53,        1,   115200, 0x15532e9e
0,         54,         54,        1,   115200, 0xbe85f37a
0,         55,         55,        1,   115200, 0x2c581d60
0,         56,         56,        1,   115200, 0xd7a506ed
0,         57,         57,        1,   115200, 0x35e09799
0,         58,         58,        1,   115200, 0x2d4f5499
0,         59,         59,        1,   115200, 0x92fdc85b
0,         60,         60,        1,   115200, 0x33f4888a
0,         61,         61,        1,   115200, 0x65e04e05
0,         62,         62,        1,   115200, 0x14766728
0,         63,         63,        1,   115200, 0x2a432c3f
0,         64,         64,        1,   115200, 0x136a1362
0,         65,         65,        1,   115200, 0xfbf4cb01
0,         66,         66,        1,   115200, 0x7dcaff69
0,         67,         67,        1,   115200, 0x5afd3b9e
0,         68,         68,        1,   115200, 0x86fcb122
0,         69,         69,        1,   115200, 0xc988b519
0,         70,         70,        1,   115200, 0x48fd3e75
0,         71,         71,        1,   115200, 0x2728a2d7
0,         72,         72,        1,   115200, 0xa2ac6418
